<svg width="452" height="480" viewBox="0 0 452 480" fill="none" xmlns="http://www.w3.org/2000/svg">
<path d="M229.457 246.857C246.652 237.163 259.048 226.222 257.145 222.421C255.242 218.619 239.76 223.397 222.565 233.091C205.37 242.786 192.973 253.726 194.876 257.528C196.78 261.329 212.262 256.552 229.457 246.857Z" stroke="url(#paint0_linear_559_34)" stroke-width="2" stroke-miterlimit="10"/>
<path d="M230.065 247.145C249.699 235.017 263.851 221.969 261.674 218C259.497 214.032 241.816 220.646 222.182 232.774C202.548 244.901 188.397 257.95 190.574 261.918C192.751 265.887 210.432 259.272 230.065 247.145Z" stroke="url(#paint1_linear_559_34)" stroke-width="2" stroke-miterlimit="10"/>
<path d="M230.514 247.501C252.748 232.592 268.781 217.163 266.325 213.039C263.869 208.915 243.854 217.657 221.621 232.566C199.387 247.474 183.354 262.903 185.81 267.027C188.266 271.152 208.281 262.409 230.514 247.501Z" stroke="url(#paint2_linear_559_34)" stroke-width="2" stroke-miterlimit="10"/>
<path d="M230.93 247.889C255.96 229.794 273.999 211.616 271.22 207.288C268.442 202.96 245.898 214.121 220.868 232.216C195.837 250.311 177.798 268.489 180.577 272.817C183.356 277.145 205.899 265.984 230.93 247.889Z" stroke="url(#paint3_linear_559_34)" stroke-width="2" stroke-miterlimit="10"/>
<path d="M231.691 248.239C259.64 226.567 279.742 205.288 276.591 200.712C273.439 196.136 248.228 209.995 220.279 231.667C192.331 253.339 172.229 274.618 175.38 279.194C178.531 283.77 203.743 269.911 231.691 248.239Z" stroke="url(#paint4_linear_559_34)" stroke-width="2" stroke-miterlimit="10"/>
<path d="M232.608 248.763C263.626 223.068 285.87 198.294 282.292 193.431C278.714 188.567 250.668 205.455 219.65 231.15C188.632 256.846 166.387 281.619 169.966 286.483C173.544 291.347 201.59 274.459 232.608 248.763Z" stroke="url(#paint5_linear_559_34)" stroke-width="2" stroke-miterlimit="10"/>
<path d="M233.233 249.395C267.33 219.303 291.677 190.705 287.614 185.521C283.55 180.336 252.615 200.528 218.518 230.62C184.421 260.712 160.074 289.31 164.137 294.495C168.201 299.679 199.136 279.488 233.233 249.395Z" stroke="url(#paint6_linear_559_34)" stroke-width="2" stroke-miterlimit="10"/>
<path d="M234.411 250.051C271.686 215.069 298.164 182.223 293.55 176.687C288.937 171.152 254.98 195.023 217.705 230.005C180.43 264.987 153.952 297.833 158.565 303.368C163.179 308.904 197.136 285.033 234.411 250.051Z" stroke="url(#paint7_linear_559_34)" stroke-width="2" stroke-miterlimit="10"/>
<path d="M235.733 250.848C276.087 210.611 304.485 173.117 299.161 167.104C293.837 161.091 256.806 188.836 216.452 229.073C176.097 269.31 147.7 306.803 153.024 312.816C158.348 318.829 195.378 291.085 235.733 250.848Z" stroke="url(#paint8_linear_559_34)" stroke-width="2" stroke-miterlimit="10"/>
<path d="M237.058 251.842C280.461 205.875 310.691 163.343 304.577 156.844C298.464 150.344 258.324 182.338 214.921 228.304C171.518 274.27 141.289 316.802 147.402 323.302C153.515 329.802 193.656 297.808 237.058 251.842Z" stroke="url(#paint9_linear_559_34)" stroke-width="2" stroke-miterlimit="10"/>
<path d="M238.813 252.773C285.047 200.722 316.783 152.782 309.699 145.696C302.614 138.61 259.391 175.061 213.158 227.112C166.924 279.163 135.188 327.103 142.273 334.189C149.357 341.275 192.58 304.824 238.813 252.773Z" stroke="url(#paint10_linear_559_34)" stroke-width="2" stroke-miterlimit="10"/>
<path d="M240.797 253.84C289.603 195.346 322.521 141.681 314.321 133.976C306.121 126.272 259.908 167.446 211.101 225.94C162.295 284.435 129.377 338.1 137.577 345.804C145.778 353.509 191.991 312.335 240.797 253.84Z" stroke="url(#paint11_linear_559_34)" stroke-width="2" stroke-miterlimit="10"/>
<path d="M243.276 255.312C294.308 190.058 327.918 130.326 318.346 121.896C308.773 113.466 259.643 159.531 208.611 224.784C157.578 290.038 123.968 349.771 133.541 358.201C143.113 366.631 192.243 320.566 243.276 255.312Z" stroke="url(#paint12_linear_559_34)" stroke-width="2" stroke-miterlimit="10"/>
<path d="M246.405 256.744C299.211 184.444 332.879 118.316 321.603 109.042C310.328 99.7691 258.38 150.862 205.573 223.162C152.767 295.462 119.099 361.59 130.374 370.863C141.65 380.137 193.598 329.044 246.405 256.744Z" stroke="url(#paint13_linear_559_34)" stroke-width="2" stroke-miterlimit="10"/>
<path d="M250.088 258.455C304.038 179.005 336.968 106.336 323.639 96.1444C310.311 85.9527 255.77 142.098 201.82 221.548C147.87 300.998 114.94 373.667 128.269 383.858C141.598 394.05 196.138 337.905 250.088 258.455Z" stroke="url(#paint14_linear_559_34)" stroke-width="2" stroke-miterlimit="10"/>
<path d="M254.823 260.283C309.227 173.571 340.42 94.1557 324.493 82.9036C308.567 71.6515 251.552 132.824 197.148 219.536C142.744 306.247 111.551 385.663 127.478 396.915C143.404 408.167 200.419 346.995 254.823 260.283Z" stroke="url(#paint15_linear_559_34)" stroke-width="2" stroke-miterlimit="10"/>
<path d="M260.629 262.324C314.628 168.443 342.916 82.3083 323.814 69.9361C304.712 57.5639 245.453 123.64 191.454 217.52C137.456 311.401 109.167 397.536 128.269 409.908C147.371 422.28 206.631 356.205 260.629 262.324Z" stroke="url(#paint16_linear_559_34)" stroke-width="2" stroke-miterlimit="10"/>
<path d="M267.543 264.455C320.171 163.598 344.184 70.8786 321.177 57.36C298.17 43.8413 236.856 114.643 184.227 215.499C131.599 316.356 107.586 409.076 130.593 422.594C153.6 436.113 214.914 365.311 267.543 264.455Z" stroke="url(#paint17_linear_559_34)" stroke-width="2" stroke-miterlimit="10"/>
<path d="M276.737 266.686C326.938 159.207 344.947 60.1449 316.96 45.425C288.974 30.7052 225.59 105.901 175.388 213.381C125.187 320.86 107.178 419.922 135.164 434.642C163.151 449.361 226.535 374.165 276.737 266.686Z" stroke="url(#paint18_linear_559_34)" stroke-width="2" stroke-miterlimit="10"/>
<path d="M287.879 268.603C334.502 155.011 344.56 50.1075 310.345 34.2944C276.13 18.4812 210.599 97.7464 163.977 211.338C117.355 324.93 107.296 429.833 141.511 445.647C175.726 461.46 241.257 382.194 287.879 268.603Z" stroke="url(#paint19_linear_559_34)" stroke-width="2" stroke-miterlimit="10"/>
<path d="M302.186 270.203C344.046 151.243 343.836 41.2787 301.718 24.5901C259.6 7.90143 191.522 90.8085 149.663 209.768C107.804 328.728 108.013 438.693 150.131 455.381C192.249 472.07 260.327 389.163 302.186 270.203Z" stroke="url(#paint20_linear_559_34)" stroke-width="2" stroke-miterlimit="10"/>
<path d="M320.369 270.96C356.325 147.513 343.217 33.5804 291.09 16.4836C238.964 -0.613317 167.559 85.6001 131.602 209.047C95.6456 332.493 108.754 446.426 160.881 463.523C213.007 480.62 284.412 394.406 320.369 270.96Z" stroke="url(#paint21_linear_559_34)" stroke-width="2" stroke-miterlimit="10"/>
<path d="M343.174 270.176C372.22 143.146 343.304 26.66 278.588 9.9967C213.871 -6.66656 137.862 82.8031 108.815 209.833C79.7689 336.862 108.685 453.349 173.401 470.012C238.118 486.675 314.127 397.205 343.174 270.176Z" stroke="url(#paint22_linear_559_34)" stroke-width="2" stroke-miterlimit="10"/>
<path d="M371.74 267.025C393.03 137.48 345.015 20.3822 264.494 5.4807C183.974 -9.42077 101.44 83.5166 80.1492 213.062C58.8587 342.608 106.874 459.705 187.395 474.607C267.915 489.508 350.449 396.571 371.74 267.025Z" stroke="url(#paint23_linear_559_34)" stroke-width="2" stroke-miterlimit="10"/>
<path d="M407.142 260.194C420.095 129.127 349.437 13.8437 249.322 2.70183C149.207 -8.44006 57.5464 88.7785 44.5927 219.846C31.639 350.913 102.297 466.196 202.412 477.338C302.527 488.48 394.188 391.261 407.142 260.194Z" stroke="url(#paint24_linear_559_34)" stroke-width="2" stroke-miterlimit="10"/>
<path d="M225.999 478.761C350.263 478.761 450.999 371.865 450.999 240.001C450.999 108.137 350.263 1.24048 225.999 1.24048C101.735 1.24048 0.999023 108.137 0.999023 240.001C0.999023 371.865 101.735 478.761 225.999 478.761Z" stroke="url(#paint25_linear_559_34)" stroke-width="2" stroke-miterlimit="10"/>
<defs>
<linearGradient id="paint0_linear_559_34" x1="225.999" y1="1.24048" x2="225.999" y2="478.761" gradientUnits="userSpaceOnUse">
<stop stop-color="#FF2B06" stop-opacity="0.8"/>
<stop offset="1" stop-color="#FF2B06" stop-opacity="0.4"/>
</linearGradient>
<linearGradient id="paint1_linear_559_34" x1="225.999" y1="1.24048" x2="225.999" y2="478.761" gradientUnits="userSpaceOnUse">
<stop stop-color="#FF2B06" stop-opacity="0.8"/>
<stop offset="1" stop-color="#FF2B06" stop-opacity="0.4"/>
</linearGradient>
<linearGradient id="paint2_linear_559_34" x1="225.999" y1="1.24048" x2="225.999" y2="478.761" gradientUnits="userSpaceOnUse">
<stop stop-color="#FF2B06" stop-opacity="0.8"/>
<stop offset="1" stop-color="#FF2B06" stop-opacity="0.4"/>
</linearGradient>
<linearGradient id="paint3_linear_559_34" x1="225.999" y1="1.24048" x2="225.999" y2="478.761" gradientUnits="userSpaceOnUse">
<stop stop-color="#FF2B06" stop-opacity="0.8"/>
<stop offset="1" stop-color="#FF2B06" stop-opacity="0.4"/>
</linearGradient>
<linearGradient id="paint4_linear_559_34" x1="225.999" y1="1.24048" x2="225.999" y2="478.761" gradientUnits="userSpaceOnUse">
<stop stop-color="#FF2B06" stop-opacity="0.8"/>
<stop offset="1" stop-color="#FF2B06" stop-opacity="0.4"/>
</linearGradient>
<linearGradient id="paint5_linear_559_34" x1="225.999" y1="1.24048" x2="225.999" y2="478.761" gradientUnits="userSpaceOnUse">
<stop stop-color="#FF2B06" stop-opacity="0.8"/>
<stop offset="1" stop-color="#FF2B06" stop-opacity="0.4"/>
</linearGradient>
<linearGradient id="paint6_linear_559_34" x1="225.999" y1="1.24048" x2="225.999" y2="478.761" gradientUnits="userSpaceOnUse">
<stop stop-color="#FF2B06" stop-opacity="0.8"/>
<stop offset="1" stop-color="#FF2B06" stop-opacity="0.4"/>
</linearGradient>
<linearGradient id="paint7_linear_559_34" x1="225.999" y1="1.24048" x2="225.999" y2="478.761" gradientUnits="userSpaceOnUse">
<stop stop-color="#FF2B06" stop-opacity="0.8"/>
<stop offset="1" stop-color="#FF2B06" stop-opacity="0.4"/>
</linearGradient>
<linearGradient id="paint8_linear_559_34" x1="225.999" y1="1.24048" x2="225.999" y2="478.761" gradientUnits="userSpaceOnUse">
<stop stop-color="#FF2B06" stop-opacity="0.8"/>
<stop offset="1" stop-color="#FF2B06" stop-opacity="0.4"/>
</linearGradient>
<linearGradient id="paint9_linear_559_34" x1="225.999" y1="1.24048" x2="225.999" y2="478.761" gradientUnits="userSpaceOnUse">
<stop stop-color="#FF2B06" stop-opacity="0.8"/>
<stop offset="1" stop-color="#FF2B06" stop-opacity="0.4"/>
</linearGradient>
<linearGradient id="paint10_linear_559_34" x1="225.999" y1="1.24048" x2="225.999" y2="478.761" gradientUnits="userSpaceOnUse">
<stop stop-color="#FF2B06" stop-opacity="0.8"/>
<stop offset="1" stop-color="#FF2B06" stop-opacity="0.4"/>
</linearGradient>
<linearGradient id="paint11_linear_559_34" x1="225.999" y1="1.24048" x2="225.999" y2="478.761" gradientUnits="userSpaceOnUse">
<stop stop-color="#FF2B06" stop-opacity="0.8"/>
<stop offset="1" stop-color="#FF2B06" stop-opacity="0.4"/>
</linearGradient>
<linearGradient id="paint12_linear_559_34" x1="225.999" y1="1.24048" x2="225.999" y2="478.761" gradientUnits="userSpaceOnUse">
<stop stop-color="#FF2B06" stop-opacity="0.8"/>
<stop offset="1" stop-color="#FF2B06" stop-opacity="0.4"/>
</linearGradient>
<linearGradient id="paint13_linear_559_34" x1="225.999" y1="1.24048" x2="225.999" y2="478.761" gradientUnits="userSpaceOnUse">
<stop stop-color="#FF2B06" stop-opacity="0.8"/>
<stop offset="1" stop-color="#FF2B06" stop-opacity="0.4"/>
</linearGradient>
<linearGradient id="paint14_linear_559_34" x1="225.999" y1="1.24048" x2="225.999" y2="478.761" gradientUnits="userSpaceOnUse">
<stop stop-color="#FF2B06" stop-opacity="0.8"/>
<stop offset="1" stop-color="#FF2B06" stop-opacity="0.4"/>
</linearGradient>
<linearGradient id="paint15_linear_559_34" x1="225.999" y1="1.24048" x2="225.999" y2="478.761" gradientUnits="userSpaceOnUse">
<stop stop-color="#FF2B06" stop-opacity="0.8"/>
<stop offset="1" stop-color="#FF2B06" stop-opacity="0.4"/>
</linearGradient>
<linearGradient id="paint16_linear_559_34" x1="225.999" y1="1.24048" x2="225.999" y2="478.761" gradientUnits="userSpaceOnUse">
<stop stop-color="#FF2B06" stop-opacity="0.8"/>
<stop offset="1" stop-color="#FF2B06" stop-opacity="0.4"/>
</linearGradient>
<linearGradient id="paint17_linear_559_34" x1="225.999" y1="1.24048" x2="225.999" y2="478.761" gradientUnits="userSpaceOnUse">
<stop stop-color="#FF2B06" stop-opacity="0.8"/>
<stop offset="1" stop-color="#FF2B06" stop-opacity="0.4"/>
</linearGradient>
<linearGradient id="paint18_linear_559_34" x1="225.999" y1="1.24048" x2="225.999" y2="478.761" gradientUnits="userSpaceOnUse">
<stop stop-color="#FF2B06" stop-opacity="0.8"/>
<stop offset="1" stop-color="#FF2B06" stop-opacity="0.4"/>
</linearGradient>
<linearGradient id="paint19_linear_559_34" x1="225.999" y1="1.24048" x2="225.999" y2="478.761" gradientUnits="userSpaceOnUse">
<stop stop-color="#FF2B06" stop-opacity="0.8"/>
<stop offset="1" stop-color="#FF2B06" stop-opacity="0.4"/>
</linearGradient>
<linearGradient id="paint20_linear_559_34" x1="225.999" y1="1.24048" x2="225.999" y2="478.761" gradientUnits="userSpaceOnUse">
<stop stop-color="#FF2B06" stop-opacity="0.8"/>
<stop offset="1" stop-color="#FF2B06" stop-opacity="0.4"/>
</linearGradient>
<linearGradient id="paint21_linear_559_34" x1="225.999" y1="1.24048" x2="225.999" y2="478.761" gradientUnits="userSpaceOnUse">
<stop stop-color="#FF2B06" stop-opacity="0.8"/>
<stop offset="1" stop-color="#FF2B06" stop-opacity="0.4"/>
</linearGradient>
<linearGradient id="paint22_linear_559_34" x1="225.999" y1="1.24048" x2="225.999" y2="478.761" gradientUnits="userSpaceOnUse">
<stop stop-color="#FF2B06" stop-opacity="0.8"/>
<stop offset="1" stop-color="#FF2B06" stop-opacity="0.4"/>
</linearGradient>
<linearGradient id="paint23_linear_559_34" x1="225.999" y1="1.24048" x2="225.999" y2="478.761" gradientUnits="userSpaceOnUse">
<stop stop-color="#FF2B06" stop-opacity="0.8"/>
<stop offset="1" stop-color="#FF2B06" stop-opacity="0.4"/>
</linearGradient>
<linearGradient id="paint24_linear_559_34" x1="225.999" y1="1.24048" x2="225.999" y2="478.761" gradientUnits="userSpaceOnUse">
<stop stop-color="#FF2B06" stop-opacity="0.8"/>
<stop offset="1" stop-color="#FF2B06" stop-opacity="0.4"/>
</linearGradient>
<linearGradient id="paint25_linear_559_34" x1="225.999" y1="1.24048" x2="225.999" y2="478.761" gradientUnits="userSpaceOnUse">
<stop stop-color="#FF2B06" stop-opacity="0.8"/>
<stop offset="1" stop-color="#FF2B06" stop-opacity="0.4"/>
</linearGradient>
</defs>
</svg>
